<svg id="eFrKT4X9DZJ1" xmlns="http://www.w3.org/2000/svg" xmlns:xlink="http://www.w3.org/1999/xlink" viewBox="0 0 1920 1080" shape-rendering="geometricPrecision" text-rendering="geometricPrecision"><rect width="200.109561" height="578.577644" rx="0" ry="0" transform="matrix(.837994 0.545679-.913357 1.402634 297.088728 247.886784)" fill="rgba(78,115,223,0.76)" stroke-width="0"/><rect width="200.109561" height="578.577644" rx="0" ry="0" transform="matrix(.837994 0.545679-.913357 1.402634 1639.207354-329.825251)" fill="rgba(78,115,223,0.76)" stroke-width="0"/><rect width="200.109561" height="578.577644" rx="0" ry="0" transform="matrix(.837994 0.545679-.913357 1.402634 426.201856 415.95261)" fill="rgba(78,115,223,0.67)" stroke-width="0"/><rect width="200.109561" height="578.577644" rx="0" ry="0" transform="matrix(.837994 0.545679-.913357 1.402634 1901.431361-366.536769)" fill="rgba(78,115,223,0.67)" stroke-width="0"/><rect width="200.109561" height="578.577644" rx="0" ry="0" transform="matrix(.837994 0.545679-.913357 1.402634 508.047184 654.653092)" fill="rgba(78,115,223,0.5)" stroke-width="0"/><rect width="200.109561" height="578.577644" rx="0" ry="0" transform="matrix(.837994 0.545679-.913357 1.402634 2125.770326-345.531249)" fill="rgba(78,115,223,0.5)" stroke-width="0"/></svg>
