<svg id="Layer_1" data-name="Layer 1" xmlns="http://www.w3.org/2000/svg" viewBox="0 0 400 400"><defs><style>.cls-1{fill:none;stroke:#13007c;stroke-width:4.4507px;}.cls-2{fill:#13007c;}.cls-3{fill:#ff0700;}.cls-4{fill:#ff0;}</style></defs><title>titas-logo</title><circle class="cls-1" cx="200.0002" cy="199.9999" r="193.595" transform="translate(-82.8426 200.0001) rotate(-45)"/><path class="cls-2" d="M32.6356,231.2992a164.2528,164.2528,0,0,0,5.7148,22.27q1.7193-2.4617,3.4721-4.8283c-.4377-1.3231-.8233-2.6611-1.1766-4.0085l16.102-4.5116a32.706,32.706,0,0,0,4.5395-1.4789c3.7273-2.0845,5.1219-4.3657,4.5506-7.0716-.4284-1.772-3.0232-3.6528-7.747-6.0893a16.2952,16.2952,0,0,0-9.567-1.2622,8.401,8.401,0,0,0-4.8388,2.1632,4.4617,4.4617,0,0,0-1.4975,4.2681,3.7889,3.7889,0,0,0,2.0651,2.8649,5.5516,5.5516,0,0,0,3.8707.3831,4.2592,4.2592,0,0,0,2.7755-1.8323,3.9809,3.9809,0,0,0,.6407-2.9431,13.5345,13.5345,0,0,1,5.4479,1.6218c2.1658,1.0916,3.36,2.1273,3.6038,3.1952.1875.8407-.1789,1.3784-1.12,1.6168l-19.925,5.0393a179.395,179.395,0,0,1-3.723-19.7206q-2.0286,2.3945-4.0384,4.9077l.0441,1.1859a7.9168,7.9168,0,0,0-6.6741,5.3087c-.8743,2.1217-.7153,5.2188.6271,9.1572.5315,1.8727.8115,2.7389.7873,2.6165.0757.2794.4849,1.35,1.2319,3.2a5.9111,5.9111,0,0,1,.1813,2.2352,2.6685,2.6685,0,0,1-.6178,1.8988,3.9219,3.9219,0,0,1-1.1115.7246,2.09,2.09,0,0,1-1.5317-.4,6.1033,6.1033,0,0,0-1.7628.7879,1.1986,1.1986,0,0,0-.0373.9469,1.9242,1.9242,0,0,0,1.4722,1.489,5.4041,5.4041,0,0,0,3.7466.0062,6.6108,6.6108,0,0,0,4.0023-3.8348,11.481,11.481,0,0,0,.56-8.1165c-.12-.4222-.3551-1.1027-.6737-2.0533-.7593-2.3632-1.3132-4.2725-1.63-5.7192-.5931-2.003-.1832-3.2877,1.2312-3.83C32.0891,231.3911,32.4251,231.3291,32.6356,231.2992Z"/><path class="cls-2" d="M65.48,230.4666a24.3023,24.3023,0,0,0,1.0264,5.4845c.9431,3.9781.131,6.3929-2.8916,7.3671a4.144,4.144,0,0,1-2.7531.1819l-1.9348,2.9742a43.5616,43.5616,0,0,0,5.5957-.6439,11.9326,11.9326,0,0,0,1.4753-.3956c5.6949-1.9682,7.6551-5.3473,6.39-10.2692a80.24,80.24,0,0,1-1.6393-8.0122,3.6159,3.6159,0,0,1,1.2692-2.9307q1.0365-.6984,2.1235-1.4783c.5681-.6706,1.0928-1.37,1.6181-2.1024l-30.3488,4.9958c1.6839,1.0158,3.39,1.99,5.074,2.9319l16.7652-3.184A5.566,5.566,0,0,0,65.48,230.4666Z"/><path class="cls-2" d="M31.7626,226.2121a24.6864,24.6864,0,0,0,1.0716,4.12c1.191-1.6876,2.4135-3.3411,3.7044-4.9673-.0658-.4532-.113-.7743-.14-.9618a4.167,4.167,0,0,1,.6948-2.9455,4.6426,4.6426,0,0,1,2.5246-1.9342,9.6313,9.6313,0,0,1,1.6752-.4241l23.8292-2.8388q2.3118-2.0043,4.63-3.8825L35.33,215.602c-.2341-1.9415-.3042-3.8949-.4371-5.844-1.5225,1.51-3.0567,3.06-4.5575,4.65l.2012,1.9745a5.51,5.51,0,0,1-.7519.7209,14.8315,14.8315,0,0,1-3.384,1.1176l-1.9254,2.8817q5.2949-.6306,8.3537-1.2735l1.0617-.2167C31.9966,221.0741,31.3515,223.2889,31.7626,226.2121Z"/><path class="cls-2" d="M44.34,201.7272a6.9,6.9,0,0,1,2.5259-.8649,2.2478,2.2478,0,0,1,1.2169.4123,1.8424,1.8424,0,0,1,1.1773,1.5479,16.7618,16.7618,0,0,1-1.5442,2.2334l3.9564,1.099c2.5731-2.5383,3.85-4.2321,3.8267-5.2721a3.2664,3.2664,0,0,0-1.3753-2.7743,38.9909,38.9909,0,0,0-6.1737-3.4013,23.97,23.97,0,0,1-2.7078-1.5973c.2123.009.2781-.0767.1987-.26a1.2711,1.2711,0,0,1-.1751-.6529,1.6968,1.6968,0,0,1,1.0518-1.3886,2.0854,2.0854,0,0,1,1.0332-.5766A3.7092,3.7092,0,0,1,48.6736,190l15.5973,1.0158q1.9466-1.6839,3.8794-3.2728L35.226,184.7261c.1006-1.837.3986-3.6553.6122-5.4817-1.7491,1.2245-3.5392,2.4867-5.2641,3.7962a169.509,169.509,0,0,0,.0236,33.9324c1.4331-1.6193,2.85-3.1964,4.37-4.74l-.2856-4.62.729-.6023a10.6811,10.6811,0,0,0,1.5056-3.9514c.3906-2.4886,1.5138-4.0549,3.2915-4.6969a3.291,3.291,0,0,1,1.279-.2062,9.3134,9.3134,0,0,1,1.3871.5567q.5031.2752.6358.06a9.01,9.01,0,0,1-1.8055.9668,6.7139,6.7139,0,0,0-3.4492,2.9449,4.8456,4.8456,0,0,0,.7966,6.7568,5.1184,5.1184,0,0,0,4.0863,1.5c2.1253-.0764,3.3733-.9178,3.7434-2.4986a5.16,5.16,0,0,0,.3849-2.04,3.1375,3.1375,0,0,0-1.1325-2.1713,3.3812,3.3812,0,0,0-2.4557-1.0462,2.5638,2.5638,0,0,0-.9568.2278C42.8365,202.7648,43.376,202.2,44.34,201.7272Zm-1.4374-12.1034-.3452-1.3312a9.8152,9.8152,0,0,0-3.7081,2.6419,2.88,2.88,0,0,0-.56,2.9978,19.3049,19.3049,0,0,0,2.216,2.9006,3.45,3.45,0,0,0,.5457-1.4315q.0168-.6641-1.8949-.7274a6.4349,6.4349,0,0,0-4.5681,1.6429c.0739-2.406.0721-4.8151.3043-7.2146Z"/><path class="cls-2" d="M37.0316,149.2865l-4.9207.0611a31.6262,31.6262,0,0,0-6.5326,4.1086c-4.0259,3.8028-6.5965,7.9613-7.3155,12.17a9.79,9.79,0,0,0,.1558,4.5708,14.1464,14.1464,0,0,0,2.1651,4.9294,22.0464,22.0464,0,0,0,3.7118,3.6038,6.2888,6.2888,0,0,0,3.0133,1.0285,3.2574,3.2574,0,0,0,2.0745-.4181q.9359-.5473,1.7819-1.1516c-.3365,2.5334-.6556,5.0685-.8046,7.6186,1.7149-1.3241,3.3442-2.6152,5.1343-3.8509l.4712-3.7217,28.4166,3.7372c1.705-.9959,3.3193-1.9648,5.0753-2.8692l-32.89-5.2165,1.0431-5.844q-2.72,1.6578-5.459,3.4383l-.5005,2.9067-2.2526.5651c-.3428.0292-1.0916-.497-2.2241-1.6085a20.3073,20.3073,0,0,1-2.0478-2.3011l-.7556-1.5647a9.8177,9.8177,0,0,1-.493-5.8378,15.2132,15.2132,0,0,1,5.7664-9.1012Q33.3632,151.7985,37.0316,149.2865Z"/><path class="cls-2" d="M42.3677,166.6651a9.8855,9.8855,0,0,1,2.7475-3.4156,6.3788,6.3788,0,0,1,4.6574-.9354,4.7981,4.7981,0,0,0-.4153,1.1648c-.498,2.1574-.223,3.7931.8289,4.8769a7.9527,7.9527,0,0,0,4.0582,2.32,7.6349,7.6349,0,0,0,1.2015.1366c1.0729.0078,1.6746.0114,1.805.0025a6.8358,6.8358,0,0,0,1.551-.5489A3.9741,3.9741,0,0,0,61.134,167.23c.3645-1.5681-.2241-3.2619-1.5758-5.119a19.4807,19.4807,0,0,1,3.7974-2.1875,9.0417,9.0417,0,0,1,3.864-.5673c.6178.0227,1.9813.105,4.1613.2993l3.6379-1.0027L42.9482,148.05c.6259-1.8167,1.2077-3.65,1.8758-5.4509-2.0384.814-4.0061,1.7-6.0327,2.6109a171.9332,171.9332,0,0,0-7.14,29.1864c1.6789-1.1359,3.4026-2.229,5.0939-3.29l1.4784-.3169a9.96,9.96,0,0,0,2.3315-1.4642A11.8326,11.8326,0,0,0,42.3677,166.6651ZM59.6824,157.48a50.8533,50.8533,0,0,0-4.76,1.82,11.0308,11.0308,0,0,0-2.61-.6206,23.0682,23.0682,0,0,0-6.2569.0813,13.8015,13.8015,0,0,0-3.7329,1.385c-.5464.2893-1.6653.9708-3.3653,2.098.7227-3.451,1.7572-6.8222,2.7109-10.2139Z"/><path class="cls-2" d="M57.6719,115.5494q-3.1228.6441-6.3047,1.3968a169.2852,169.2852,0,0,0-13.2714,30.32q2.6777-1.2695,5.3262-2.4405l.642-.5029c.5775-.118.9388-.19,1.0823-.2186,1.2219-.2471,2.293-1.2139,3.1064-2.9534q1.2974-2.9454,2.3712-3.4094c1.2835-.6395,3.17-.5324,5.5056.24.7638,1.1177,1.5548,2.2288,2.3843,3.3386,1.06,1.4738,1.5287,2.3682,1.3884,2.7255-.1156.2918-.8258.4756-2.1385.5685a10.8112,10.8112,0,0,1-3.3963-.57c.7575,1.41,1.4672,2.777,2.288,4.1582,4.8239-.2754,7.63-.6733,8.3413-1.4778a3.648,3.648,0,0,0,1.3766-1.935,5.9858,5.9858,0,0,0,.3079-.9575c.2223-.9338-1.592-3.6608-5.29-8.6232-.8308-1.13-1.112-2.1014-.724-2.8294a2.7694,2.7694,0,0,1,1.7559-1.1919,4.6525,4.6525,0,0,1,2.3843-.1891l13.208,6.755c2.162-.2112,4.2893-.3869,6.4128-.512L54.5524,120.978Zm-9.4552,18.4559c1.4-3.1126,2.7748-6.2376,4.3885-9.2472l7.2591,3.7128c-3.212.4355-5.2032,1.2458-5.6994,2.4075a4.1049,4.1049,0,0,0,.2013,2.6678l.2756.7916A7.8109,7.8109,0,0,0,48.2167,134.0053Z"/><path class="cls-2" d="M74.5537,113.6234a10.9809,10.9809,0,0,1,4.3384.0471,36.074,36.074,0,0,1,12.4243,5.4659q.46.3428.8153.6079c1.4063.2009,2.8338.4405,4.2308.6814L68.77,99.2025l3.731-4.72c-2.1682.1375-4.3246.34-6.5276.56a171.7323,171.7323,0,0,0-16.4168,25.2107c2.0527-.5778,4.19-1.0621,6.2848-1.5225A159.4057,159.4057,0,0,1,66.18,102.6591l10.5474,7.6846-.2155-.0267c-5.5851-1.0673-9.6023-.017-11.5079,3.0754a6.38,6.38,0,0,0-.7513,5.6248,8.2781,8.2781,0,0,0,3.9868,4.7742c3.86,2.2172,6.5152,1.669,8.504-1.3213q2.2036-3.4339-1.941-6.2308a7.0511,7.0511,0,0,0-3.8291-1.0543A6.1778,6.1778,0,0,1,74.5537,113.6234Z"/><path class="cls-2" d="M89.8548,84.643l-2.28-.2849a.61.61,0,0,0-.8215.5194,2.6236,2.6236,0,0,0,.1236.7609,17.2966,17.2966,0,0,0,4.3625,7.34,18.5591,18.5591,0,0,0,5.7757,3.985,8.62,8.62,0,0,0,9.9426-1.647,16.3607,16.3607,0,0,0,2.2483-2.4511,17.7566,17.7566,0,0,1,2.6054-2.8925c1.5659-1.2284,3.3343-.97,5.2746.8032a8.8955,8.8955,0,0,0,2.3918,1.6858l3.0915.8485L103.2205,66.7041c-.6489-.8917-1.9174-1.4878-3.84-1.7563-1.8981-.2316-3.2536-.0295-4.0558.5421a8.8863,8.8863,0,0,0-3.546,5.9669,16.5236,16.5236,0,0,0-.0112,6.8225A12.9984,12.9984,0,0,0,94.79,84.77a8.6076,8.6076,0,0,0,2.6978,2.01,4.5955,4.5955,0,0,0,5.433-.5836,7.0828,7.0828,0,0,0,.9-.9478,3.1682,3.1682,0,0,0,.5725-2.5066,5.316,5.316,0,0,0-1.1152-2.7209,5.6979,5.6979,0,0,0-2.5655-1.8652,2.4249,2.4249,0,0,0-2.5892.42,2.2831,2.2831,0,0,0-.3372.3756,8.6738,8.6738,0,0,1-.7208-2.5072,13.3715,13.3715,0,0,1,.3464-4.2309,6.1464,6.1464,0,0,1,1.6913-3.528c.12-.095.1634-.1344.1268-.12L112.24,85.5114l-.9-.181a8.4134,8.4134,0,0,0-5.8962,2.2977A19.43,19.43,0,0,0,102.77,90.534a7.6365,7.6365,0,0,1-2.352,1.6506,4.9607,4.9607,0,0,1-2.7146.7017,8.3288,8.3288,0,0,1-4.8021-2.7134l-.7116-.729A13.4955,13.4955,0,0,1,89.8548,84.643Z"/><path class="cls-2" d="M121.6863,54.18c4.496-2.4007,9.0964-4.587,13.77-6.6186q-2.8909-1.3122-5.8943-2.5714A170.5372,170.5372,0,0,0,99.6782,62.449q3.1293.6971,6.165,1.4665c3.9241-2.6906,7.9222-5.29,12.08-7.6107l2.2825,3.9868c-1.9-.79-3.4107-.8621-4.4824-.2443a4.4609,4.4609,0,0,0-2.0807,2.9211,4.104,4.104,0,0,0,.8345,3.5674q2.9208,3.9239,5.5883,2.2139a2.9817,2.9817,0,0,0,1.3039-1.8662,3.0354,3.0354,0,0,0-.2882-2.4016,4.2862,4.2862,0,0,0-1.2319-1.2711c-.1273-.0729-.1452-.3806-.05-.9254-.3247.5293-.4086.92-.2583,1.1754l-1.0618-1.15c-.5427.3124-.5463.73-.0161,1.2558a7.6539,7.6539,0,0,0,1.6187.4626,6.5369,6.5369,0,0,1,3.2294,2.1039,36.4616,36.4616,0,0,0,3.112,2.9047,3.1856,3.1856,0,0,0,3.45.2505,5.1826,5.1826,0,0,0,2.25-3.0788,13.9211,13.9211,0,0,0,1.4138-4.5087,7.5061,7.5061,0,0,1,1.4039,1.95,11.8378,11.8378,0,0,1,.7805,3.2948,8.09,8.09,0,0,1-.4378,3.5882,7.8225,7.8225,0,0,1-3.3237,3.5591c-2.5811,1.4787-5.4572,1.3806-8.7617-.164a21.905,21.905,0,0,1-5.0157-2.8272,59.0336,59.0336,0,0,1-6.4475-6.07c-2.1012-.5871-4.2172-1.118-6.33-1.5666l6.0538,5.8437c2.752,2.6289,4.7773,4.5069,6.075,5.5289q2.3564,1.5885,4.324,2.8965a17.6372,17.6372,0,0,0,6.7549,2.6727,8.9617,8.9617,0,0,0,6.2768-.674c3.86-1.92,5.3832-5.3842,4.8853-10.3043a21.0332,21.0332,0,0,0-1.6777-6.3621,16.6352,16.6352,0,0,0-3.8913-5.3628,12.3606,12.3606,0,0,0-5.4447-3.1312c-.22,2.7792-.3173,4.6627-.3651,5.686a21.6844,21.6844,0,0,1-.41,2.211,6.9869,6.9869,0,0,1-.5154,1.8342c-.1266.0648-.2812.0018-.4656-.191-.0019.0009-.0348-.0773-.1006-.2344Z"/><path class="cls-2" d="M177.873,30.8367l-2.1123-4.4833a27.4182,27.4182,0,0,0-6.4519-4.2182,22.598,22.598,0,0,0-14.1183-1.6109,8.8968,8.8968,0,0,0-4.0843,2.0744,15.7593,15.7593,0,0,0-3.59,3.9993,19.769,19.769,0,0,0-1.7292,4.8773,6.37,6.37,0,0,0,.326,3.18,3.2007,3.2007,0,0,0,1.2418,1.6976q.8847.61,1.7826,1.1127l-7.2665,2.4581q2.8919,1.5336,5.6677,3.1126c1.1872-.3942,2.3669-.8149,3.5615-1.1852l8.458,27.3845q2.4309,1.7268,4.74,3.4818l-8.9733-32.0687c1.9012-.5508,3.8061-1.09,5.7434-1.5017-1.7721-1.23-3.5808-2.4411-5.4069-3.55l-2.8388.805-1.46-1.8323c-.17-.3027,0-1.1894.5439-2.6659a20.9274,20.9274,0,0,1,1.2282-2.86l1.1-1.367a9.1664,9.1664,0,0,1,5.1176-2.8167A14.5963,14.5963,0,0,1,170.02,26.2832C172.7,27.6858,175.3216,29.2366,177.873,30.8367Z"/><path class="cls-2" d="M190.067,34.82q-2.2837-2.2194-4.6891-4.4265a169.9977,169.9977,0,0,0-32.4264,5.9726q2.7867,1.6866,5.4553,3.4109c3.5231-.792,7.0176-1.7451,10.5822-2.3355q2.1709,11.4417,2.3651,12.1825c1.3957,2.9838,3.0319,4.3085,4.9809,3.9586a6.1823,6.1823,0,0,0,2.9332-1.6451,16.4615,16.4615,0,0,0,3.5131-4.9325,4.8629,4.8629,0,0,1,1.0108,2.9428,7.5813,7.5813,0,0,1-1.8149,5.1585,6.65,6.65,0,0,1-4.2067,2.4,5.6492,5.6492,0,0,1-4.8226-1.0723,17.652,17.652,0,0,1-2.38-2.3514,25.1759,25.1759,0,0,1-4.3135-6.4,43.7627,43.7627,0,0,1-3.0666-7.3128l-3.574-1.1943c1.0232,2.9823,1.71,4.9989,2.0825,6.043a64.7962,64.7962,0,0,0,5.4019,11.02,42.7969,42.7969,0,0,0,4.9108,5.9939,7.8277,7.8277,0,0,0,6.1042,2.3989,8.3889,8.3889,0,0,0,5.5342-2.1611,10.4138,10.4138,0,0,0,3.143-6.2808,23.4368,23.4368,0,0,0,.2725-5.6316,15.6219,15.6219,0,0,0-2.1533-6.69,9.1629,9.1629,0,0,0-4.7313-4.2215,15.1251,15.1251,0,0,0-1.3648,2.4805,9.079,9.079,0,0,1-3.8732,5.0542l-1.7081-10.4955Q181.5987,35.3323,190.067,34.82Z"/><path class="cls-2" d="M219.8551,30.5488l-.9624-4.8725a29.1772,29.1772,0,0,0-5.2355-5.6295,22.7947,22.7947,0,0,0-13.2657-5.0123,9.5047,9.5047,0,0,0-4.4507,1.04,15.6418,15.6418,0,0,0-4.4432,2.9822,20.5927,20.5927,0,0,0-2.8624,4.323,6.357,6.357,0,0,0-.4632,3.1614,3.2159,3.2159,0,0,0,.7873,1.9521q.7078.81,1.4542,1.5188l-7.6384.5824q2.4232,2.2013,4.7263,4.4184l3.7391-.2816,1.494,28.6223c1.2921,1.4943,2.5457,3.0295,3.7577,4.5407l-.8668-33.2894c1.9758-.0217,3.9515-.1642,5.9272-.07-1.4163-1.6532-2.873-3.1831-4.3706-4.7388l-2.9437.0745-.9656-2.1375c-.0912-.3352.29-1.1517,1.1755-2.4469a20.8831,20.8831,0,0,1,1.8838-2.4651l1.397-1.0512a8.9079,8.9079,0,0,1,5.6329-1.5,14.5161,14.5161,0,0,1,9.9805,3.9738C215.5932,26.3164,217.7714,28.335,219.8551,30.5488Z"/><path class="cls-2" d="M205.6052,48.3118c-2.257,2.0652-3.4038,4.116-3.5665,6.1489-.2706,2.7093.2081,4.7385,1.3667,6.0837.9115,1.0157,2.3619,1.4867,4.365,1.604a11.5357,11.5357,0,0,0,7.0256-1.9322,7.153,7.153,0,0,0,3.9136-3.3445,7.55,7.55,0,0,0,1.3032-3.2958,5.171,5.171,0,0,0-.6892-3.5159,3.5,3.5,0,0,0-2.6034-1.7736,2.9392,2.9392,0,0,0-2.5737,1.0878,4.6472,4.6472,0,0,0-1.3282,2.8956,3.6,3.6,0,0,0,.6936,2.4119,2.6164,2.6164,0,0,0,.5353.4859l-.2366.3645q-.0121.1281-.4235.2235a5.2242,5.2242,0,0,0-1.1456.488,8.936,8.936,0,0,1-2.6245,1.1391c-1.9969.2517-2.9692.4306-2.9375.4452a.867.867,0,0,1-.9544-.7839c-.118-1.1552,1.0792-2.9652,3.7447-5.013,3.8242-2.9164,6.527-5.3068,7.7937-6.97l1.2771-1.6276a7.2989,7.2989,0,0,0,1.561-3.7,8.4272,8.4272,0,0,0-.1974-3.029l-.2925-.9321c2.1943.3,4.4017.5105,6.5841.89-.9462-1.4982-1.9378-2.8754-2.9486-4.3112l-1.45-1.189q-.7059-.09-.8705.7708a9.15,9.15,0,0,0-.5607-4.7822,8.3774,8.3774,0,0,0-2.7108-3.7361,13.5167,13.5167,0,0,0-4.311-1.4892c-.6551-.0494-1.9031-.0506-3.7336.0009-1.8323.0937-3.215.1779-4.1551.1447a9.5011,9.5011,0,0,1-3.5553-.5983c-.7755-.3586-1.2071-.6671-1.2884-.9248a5.2612,5.2612,0,0,1-.43-1.8612,4.749,4.749,0,0,1,1.3039-2.5268c-1.0325-.38-2.0713-.7143-3.1157-1.0189a6.6283,6.6283,0,0,0-1.8149,5.15,4.8514,4.8514,0,0,0,1.0971,3.229,10.2569,10.2569,0,0,0,7.7925,4.3541c1.8676-.049,3.143-.1195,3.82-.1173,3.7347.1568,5.5689.2213,5.4931.1748a18.7063,18.7063,0,0,1,2.3862.7568,2.1559,2.1559,0,0,1,.0665,1.7187,1.4652,1.4652,0,0,1-.6123,1.4132l-1.6391-1.4023a164.8847,164.8847,0,0,0-20.5863-.5517q2.2576,2.3665,4.3923,4.74c1.8876-.0736,3.7758.0575,5.6633.0789a10.5954,10.5954,0,0,0-2.5339,6.7636,7.1522,7.1522,0,0,0,.7159,3.3047,4.9793,4.9793,0,0,0,3.7068,2.9378Zm6.1427-4.795c-.0131.1723-.3564.3829-1.0232.6337a4.5667,4.5667,0,0,1-1.9671.3024c-1.5392-.114-2.2763-1.0335-2.2005-2.9611a3.7239,3.7239,0,0,1,1.3437-2.7711c.39-.371.4656-.73.22-1.077,1.2716,2.0052,2.4929,4.0486,3.6671,6.0669Zm3.9149-5.5391c-.1646,1.7056-.8271,2.7718-1.97,3.2L211,35.8825a2.9394,2.9394,0,0,1,.5377-.3468,3.4807,3.4807,0,0,1,1.8627-.3741Q215.9172,35.3539,215.6628,37.9777Z"/><path class="cls-2" d="M209.1774,62.4176a24.0261,24.0261,0,0,0-5.5647-.5625c-4.0942-.2509-6.183-1.7066-6.2544-4.8732a4.1689,4.1689,0,0,1,.6116-2.6967l-2.301-2.6838a43.7,43.7,0,0,0-.9823,5.5568,11.8586,11.8586,0,0,0-.0422,1.5274c.26,6.0409,2.9468,8.7925,8.0476,9.029a63.4905,63.4905,0,0,1,8.1724.73,3.5036,3.5036,0,0,1,2.4644,1.9692c.2508.8019.5234,1.6324.8152,2.4848q.7227,1.122,1.5554,2.1934l3.7894-30.5229C218.04,45.89,216.63,47.1846,215.25,48.5385L213.561,65.52A5.7788,5.7788,0,0,0,209.1774,62.4176Z"/><path class="cls-2" d="M256.138,38.8616l.1117-4.9406a28.5608,28.5608,0,0,0-3.8776-6.6875c-3.6627-4.1827-7.739-6.8312-11.9208-7.7192a8.89,8.89,0,0,0-4.5717-.0092,15.9339,15.9339,0,0,0-5.0046,2.0105,21.6112,21.6112,0,0,0-3.72,3.5444,6.325,6.325,0,0,0-1.1306,2.9869,3.2313,3.2313,0,0,0,.35,2.0773q.514.9639,1.0884,1.84c-2.5128-.4725-5.0622-.6938-7.5931-1.0456q1.9009,2.6428,3.6782,5.2746c1.2437.1369,2.4763.3474,3.7062.5769L222.5654,65.045q1.4063,2.6106,2.6916,5.1927l6.32-32.6953c1.9564.3071,3.8713.8187,5.8036,1.2462-1.04-1.868-2.1173-3.7577-3.24-5.6291l-2.9034-.5225-.4868-2.2837c-.018-.3462.5321-1.0667,1.68-2.1527a21.18,21.18,0,0,1,2.3793-2.0261l1.5933-.7214A9.8013,9.8013,0,0,1,242.24,25.23a14.8289,14.8289,0,0,1,8.9124,6.0321C252.9185,33.7217,254.55,36.3544,256.138,38.8616Z"/><path class="cls-2" d="M261.9006,46.51q-1.0813-2.99-2.2781-6.0219a171.999,171.999,0,0,0-28.3942-7.8526c1.1406,1.8351,2.2545,3.5932,3.2976,5.496a165.3715,165.3715,0,0,1,17.49,4.7546l-.26.7851A42.3793,42.3793,0,0,0,232.93,48.984q1.2172,3.74,2.2657,7.44a11.5606,11.5606,0,0,1,5.57,4.1328c2.0981,2.6531,3.0288,6.5276,2.873,11.2434q.3735,2.5421.6731,5.0551l11.7333-32.6045C258.0212,44.9356,259.9478,45.759,261.9006,46.51Zm-16.3814,16.009A20.6834,20.6834,0,0,0,240.1514,52.6a32.267,32.267,0,0,1,9.4626-2.4548Z"/><path class="cls-2" d="M269.1243,34.8241a2.3308,2.3308,0,0,1-.5676-2.5445c.208-.5075,1.1226-.9875,2.7724-1.4234a27.801,27.801,0,0,0-2.3408-2.2253c-.5986-.2369-1.3008-.0134-2.0956.6743a6.243,6.243,0,0,0-1.7615,2.5137,6.7764,6.7764,0,0,0,.3707,5.6074,11.6309,11.6309,0,0,0,5.9054,5.5081q.6.2715,2.0646.8128a45.0335,45.0335,0,0,1,5.4547,2.3508,4.2343,4.2343,0,0,1,2.1508,1.9555c.4029.6809.4731,1.2142.2185,1.6023-.0056-.24-.1956-.3869-.5718-.4381-.77-.0692-1.3934-.1087-1.8745-.1226a165.0234,165.0234,0,0,0-22.5416-9.7905c.82,1.9444,1.5952,3.8971,2.3055,5.91,3.5559,1.36,7.0808,2.7925,10.5225,4.4206l-4.4879,9.7458,1.2132.5482-.1217.2583.0553-.2542q.2235-1.2929-.0434-1.4139c-.1776-.08-.5471.2065-1.1034.8616a8.0224,8.0224,0,0,0-.4327,4.5189,4.1887,4.1887,0,0,0,2.13,3.0785,4.6365,4.6365,0,0,0,2.7948.3626,16.8765,16.8765,0,0,0,5.5776-1.9739,5.0475,5.0475,0,0,1-.6365,2.3427,9.5686,9.5686,0,0,1-2.87,2.8146A6.5492,6.5492,0,0,1,267.7533,71.7a6.1278,6.1278,0,0,1-3.2157-.6476,6.2561,6.2561,0,0,1-3.3032-3.9152,4.9212,4.9212,0,0,1-.1441-.9018l-.3514-2.4607a26.4452,26.4452,0,0,1,.1887-7.5844,35.9183,35.9183,0,0,1,1.7385-7.5847l-2.3147-2.963c-1.9528,6.876-3.0729,11.236-3.2648,13.1171-.2371,2.4557-.3948,4.1219-.434,5.0159a40.114,40.114,0,0,0,.5235,7.7211,8.6595,8.6595,0,0,0,9.3161,6.85,9.546,9.546,0,0,0,6.1085-3.1489,25.5076,25.5076,0,0,0,3.7726-4.7152,14.3093,14.3093,0,0,0,1.8746-6.6859c.1707-2.8311-.3446-4.5926-1.4678-5.2371-.819-.43-2.2359-.0739-4.1825,1.0757-1.9466,1.1515-3.0344,1.669-3.3213,1.5218a.7672.7672,0,0,1-.21-.1784,1.4228,1.4228,0,0,1-.15-.9668q.11-.4065.2862-.8857l3.7788-7.6779a167.2138,167.2138,0,0,1,14.836,8.29c-.3545-2.13-.7581-4.26-1.238-6.3432l-1.9925-1.1471a7.6227,7.6227,0,0,0,.6892-6.98c-.7817-2.04-2.4731-3.7093-4.9077-5.2163-1.502-.6479-2.9928-1.3119-4.5345-1.8646-2.3377-.9443-3.6932-1.4963-4.0682-1.6658l-.8786-.308-.1682-.0758A5.855,5.855,0,0,1,269.1243,34.8241Z"/><path class="cls-2" d="M295.9487,77.5936a6.0554,6.0554,0,0,0,1.3176-3.8164,27.7737,27.7737,0,0,0-.54-3.8795,2.4023,2.4023,0,0,1,2.5433.1984c.6749.4225.932,1.73.7227,3.8822a8.5952,8.5952,0,0,1-1.2188,4.2936L285.8894,93.7663c-.0273,1.9857-.167,4.04-.3154,6.0372L307.37,74.3118c1.4424,1.2676,2.9245,2.4911,4.33,3.799.0552-2.1412.0043-4.2263-.0361-6.3817q-1.25-1.4236-1.06-2.1962l.3751-.442a3.8786,3.8786,0,0,0,.8574-1.8966,29.2394,29.2394,0,0,0-.3961-4.5134l-4.763,6.2016-3.7062,5.4165.1745-.659c.8438-5.3321.5563-8.5531-.5843-9.4463a4.9182,4.9182,0,0,0-1.4461-.6261,8.6075,8.6075,0,0,0-7.015.4048,24.8517,24.8517,0,0,0-.2937-4.302,6.4058,6.4058,0,0,0-2.6494-3.3622c-2.1807-1.4489-4.4408-2.768-6.72-4.0558q.7116,3.2053,1.3119,6.3507,4.51,2.72,2.7147,1.492a4.395,4.395,0,0,1,1.7584,2.3343,18.0992,18.0992,0,0,1-.005,1.96c-.9344.1053-1.6324.2108-2.1005.312a7.8044,7.8044,0,0,0-5.6677,3.5333,6.79,6.79,0,0,0-.6073,1.27c-.81,2.4988-.4762,4.2225,1.0432,5.1954,1.4225.869,3.08.923,5.1871-.0366-.1242,2.0847.4011,3.5432,1.6218,4.41a3.9794,3.9794,0,0,0,2.0608.7448,3.43,3.43,0,0,0,2.383-.4946l-.2422.0512A6.1951,6.1951,0,0,0,295.9487,77.5936Z"/><path class="cls-2" d="M310.4457,95.1637a10.7351,10.7351,0,0,1-.909,4.2076,36.3619,36.3619,0,0,1-7.9488,11.0724q-.43.38-.7631.6727l-1.517,3.9832,26.447-22.635q2.0044,2.2456,3.8279,4.64c.3161-2.1543.6446-4.374.8364-6.5366a166.9987,166.9987,0,0,0-21.2872-21.2466q.1415,3.2724.1868,6.468a169.8122,169.8122,0,0,1,13.6066,13.411l-9.6911,8.74.0733-.2081c2.1912-5.242,1.9279-9.3322-.6408-11.8941a6.6922,6.6922,0,0,0-5.369-1.8745,8.1017,8.1017,0,0,0-5.4714,2.8922q-4.3635,4.8859-.4775,8.6151c1.9981,1.8491,4.075,1.7333,6.48-.5985a7.2526,7.2526,0,0,0,1.8491-3.5585A6.8267,6.8267,0,0,1,310.4457,95.1637Z"/><path class="cls-2" d="M319.29,128.8247c.0937-1.0645.9077-2.4085,2.4948-4.0927a23.0908,23.0908,0,0,1,4.1538-3.42c5.0114-3.15,9.8663-4.2561,14.3965-2.8475a11.54,11.54,0,0,1,6.5449,5.0148c.7383-1.9388,1.4927-3.93,2.1185-5.8956a9.6265,9.6265,0,0,0-6.6194-4.4513c-5.7441-1.1925-11.218.2117-16.6547,3.8214-5.4,3.588-8.6759,7.7188-9.996,12.0869a5.39,5.39,0,0,0,.53,4.3048,4.1644,4.1644,0,0,0,3.24,1.9366,6.9758,6.9758,0,0,0,4.5121-.7917,5.1081,5.1081,0,0,0,2.2769-2.3821c.5793-1.2129.56-2.1039.077-2.7118q-1.9289-3.3487-5.8533-.9962a7.63,7.63,0,0,0-1.2151,1.203A2.73,2.73,0,0,1,319.29,128.8247Z"/><path class="cls-2" d="M344.6994,149.2309a4.8538,4.8538,0,0,0-1.0177-1.615,5.4417,5.4417,0,0,0-4.3538-.2856,4.8927,4.8927,0,0,0-2.6476,2.2424,3.63,3.63,0,0,0-.4054,3.027,4.15,4.15,0,0,0,3.0319,2.5969,8.5747,8.5747,0,0,0,4.7884-.1646,13.1179,13.1179,0,0,0,8.6865-7.1292c1.3567-2.804,1.69-5.2107.9656-7.065l.714-.2751c1.6871,4.3737,3.2275,8.8172,4.4848,13.3356,1.12-1.7966,2.3123-3.6587,3.3362-5.5112a170.64,170.64,0,0,0-14.7342-33.33c-.63,2.0986-1.2716,4.155-1.9552,6.1866,2.6562,5.0133,5.1287,10.1222,7.3075,15.3623l-1.0587.44a36.0889,36.0889,0,0,0-15.7642-9.9432q-1.7921,3.4147-3.6646,6.6722c1.284,3.5234.51,7.2746-1.8448,10.789a20.1146,20.1146,0,0,1-2.347,2.87c-.3738.3251-1.41,1.1142-3.1176,2.3371l-1.7187,2.7572,24.7724-9.5381a5.7022,5.7022,0,0,1-.6283,5.4789,7.7664,7.7664,0,0,1-2.7829,2.8841A3.4408,3.4408,0,0,0,344.6994,149.2309Zm-10.1357-5.0141a17.5671,17.5671,0,0,0,3.9459-9.7523c1.5845.7292,2.5413,1.1992,2.8518,1.3713a22.6925,22.6925,0,0,1,4.8884,3.5308Z"/><path class="cls-2" d="M362.345,148.574a37.7187,37.7187,0,0,0-1.7112-3.9033q-1.4177,2.7874-2.8767,5.4674c.1472.4343.2521.7413.2987.9252a4.2481,4.2481,0,0,1-.2887,3.0334,4.77,4.77,0,0,1-2.2086,2.2992,9.5756,9.5756,0,0,1-1.5865.6733l-23.12,6.433c-1.3126,1.551-2.5519,3.0394-3.95,4.5252l33.5323-8.4168,1.3194,5.7155q1.8943-2.58,3.7571-5.283l-.45-1.9347a5.7811,5.7811,0,0,1,.65-.8314,14.6748,14.6748,0,0,1,3.1617-1.6166l1.4162-3.1315q-5.1374,1.43-8.0569,2.53l-1.0152.3754C362.7939,153.72,363.2323,151.3908,362.345,148.574Z"/><path class="cls-2" d="M358.8555,178.8318a8.6308,8.6308,0,0,0,5.3851-2.823,5.9624,5.9624,0,0,0,1.6889-5.3314,6.113,6.113,0,0,0-3.3678-4.36,8.443,8.443,0,0,0-5.9185-.8723,8.6273,8.6273,0,0,0-5.08,3.1952,6.16,6.16,0,0,0-1.5566,5.1,5.3273,5.3273,0,0,0,.683,2.0226,7.4468,7.4468,0,0,0,2.4669,1.9332A8.8179,8.8179,0,0,0,358.8555,178.8318Zm-31.1274,8.0834,4.8139-.4863a84.8686,84.8686,0,0,0,11.36-9.6654,77.9525,77.9525,0,0,0,6.2035-8.1978l-9.0994,1.8959c-3.772,6.4445-6.7834,10.2745-8.8169,12.1975C330.7041,184.1248,329.2245,185.5423,327.7281,186.9152Zm32.1258-12.4087a5.2076,5.2076,0,0,1-1.85.069,5.1444,5.1444,0,0,1-2.2483-1.4356,4.3842,4.3842,0,0,1-1.4554-2.03q-.1518-.8532,1.3393-1.1394a4.6545,4.6545,0,0,1,3.4895.4685c1.6262,1.1763,2.4042,2.1822,2.3278,2.9574Q361.355,174.2711,359.8539,174.5065Z"/><path class="cls-2" d="M368.44,227.3987l4.8716-.7507a30.7674,30.7674,0,0,0,5.9048-4.9784c3.4932-4.3265,5.3479-8.7933,5.5454-13.05a9.1728,9.1728,0,0,0-.8208-4.4917,15.04,15.04,0,0,0-2.7954-4.5689,22.4,22.4,0,0,0-4.21-3.0478,6.3444,6.3444,0,0,0-3.1337-.6,3.2244,3.2244,0,0,0-1.9887.7q-.8439.6706-1.59,1.3849c-.08-2.55-.0863-5.1032-.2409-7.6508-1.4628,1.5455-3.0735,3.0555-4.6071,4.5227l.0931,3.7469-28.66.2362c-1.4846,1.2251-3.1,2.41-4.6605,3.5553l33.2949.5936c-.044,1.9758-.0534,3.9528-.2055,5.9254q2.5389-2.0165,4.9393-4.16l.059-2.9437,2.1794-.87c.339-.0764,1.1375.34,2.39,1.2816a20.81,20.81,0,0,1,2.3775,1.99l.9866,1.4411a9.1791,9.1791,0,0,1,1.2517,5.6969,14.87,14.87,0,0,1-4.3842,9.8079C372.86,223.3255,370.63,225.3994,368.44,227.3987Z"/><path class="cls-2" d="M361.151,237.735q2.8527-1.6308,5.7316-3.39a175.0272,175.0272,0,0,0,3.4361-32.6747q-2.4681,2.2707-4.9393,4.4128a175.1565,175.1565,0,0,1-2.21,21.6759l-4.6555-.7867.2322-.1863,1.5684-.7059a4.4987,4.4987,0,0,0,1.8528-2.8562,2.848,2.848,0,0,0-.6631-2.2557,6.6259,6.6259,0,0,0-1.7361-1.7945l.3477-.2384a6.9185,6.9185,0,0,0,3.3281-5.433,5.8132,5.8132,0,0,0-2.9369-5.2547,12.1172,12.1172,0,0,0-6.4022-1.9267,10.92,10.92,0,0,0-7.1442,1.9068,7.3034,7.3034,0,0,0-3.0151,5.3522c-.2167,2.0888.8091,3.66,3.0294,4.7643a7.2893,7.2893,0,0,0,3.8415.05c2.22-.4372,3.4145-1.4809,3.5778-3.086a3.2483,3.2483,0,0,0-.9742-2.6394,4.4043,4.4043,0,0,0-2.9351-1.3145,6.7227,6.7227,0,0,0-1.2077.0136,3.1913,3.1913,0,0,1,3.1617-1.315,5.2588,5.2588,0,0,1,3.4411,1.4728,3.5966,3.5966,0,0,1,1.2195,3.1064,4.247,4.247,0,0,1-1.8808,3.256,10.5653,10.5653,0,0,1-2.4345,1.0661,3.2429,3.2429,0,0,1-2.4788-.3576l.9885,3.16c2.1372.0211,3.466.203,3.9838.5675a1.3586,1.3586,0,0,1,.7252,1.3418,2.5269,2.5269,0,0,1-1.3716,1.6951,3.4516,3.4516,0,0,1-2.3377.5594l-17.7549-3q-2.6246,1.3617-5.2212,2.6047l33.0683,6.4836C362.0656,233.9362,361.5583,235.8256,361.151,237.735Z"/><path class="cls-2" d="M352.5682,250.9652a8.0064,8.0064,0,0,0,5.8911-.2011,6.2272,6.2272,0,0,0,3.7379-4.0353,6.945,6.945,0,0,0-1.0959-5.7192,8.0282,8.0282,0,0,0-5.01-3.6012,8.3541,8.3541,0,0,0-5.9079.7476,6.2757,6.2757,0,0,0-3.54,3.99,5.766,5.766,0,0,0-.259,2.6022,8.1374,8.1374,0,0,0,1.343,2.5246A9.4122,9.4122,0,0,0,352.5682,250.9652Zm-22.3912-9.4445a10.7684,10.7684,0,0,0,5.0225,3.4559,9.0329,9.0329,0,0,0,5.8365.0845,5.1194,5.1194,0,0,0,3.5976-3.4,5.8574,5.8574,0,0,0-1.3567-5.1908,9.0311,9.0311,0,0,0-5.1734-3.3573,9.2735,9.2735,0,0,0-5.8664.4353,5.16,5.16,0,0,0-3.3672,3.3883C328.4527,238.4173,328.8544,239.9125,330.177,241.5207Zm24.5563,5.7142a3.4522,3.4522,0,0,1-2.8847-2.9046,4.45,4.45,0,0,1-.3763-2.3955q.2534-.9426,1.8615-.51a4.4892,4.4892,0,0,1,3.0194,2.0894,4,4,0,0,1,.7,2.9505Q356.6319,247.8153,354.7333,247.2349Zm-18.22-5.8062a4.0742,4.0742,0,0,1-2.5432-1.8782,3.584,3.584,0,0,1-.7153-2.4q.2832-1.0579,2.8618-.365a5.4721,5.4721,0,0,1,3.1088,1.664,2.9966,2.9966,0,0,1,.6576,2.2148Q339.3717,242.2992,336.5133,241.4287Z"/><rect class="cls-1" x="81.4279" y="273.1143" width="238.4172" height="57.2205"/><path class="cls-2" d="M120.2483,288.12a15.0071,15.0071,0,0,0-9.1038-2.9543,9.2533,9.2533,0,0,0-5.0206,1.284l-1.2692.8569a19.45,19.45,0,0,0-1.7659,2.0328q-1.27,1.6056-1.1586,2.0341l.8271,1.8193h2.7593l4.1378,4.1327H103.92v28.0552l-4.2123-3.908V297.3254H96.0987l-4.1-4.1327h7.1727a18.27,18.27,0,0,1-1.2691-1.3685,2.5521,2.5521,0,0,1-.606-1.6914,5.0856,5.0856,0,0,1,.6072-2.6289,20.6963,20.6963,0,0,1,2.7581-3.4895,14.6366,14.6366,0,0,1,3.9726-2.4153,8.7327,8.7327,0,0,1,3.862-.8047q5.5175,0,11.7526,3.7664a31.828,31.828,0,0,1,5.1312,4.3575l1.38,3.9813Z"/><path class="cls-2" d="M106.8572,297.3254l-4.1378-4.1327h33.5477l4.3588,4.1327Zm24.7618,20.988a12.78,12.78,0,0,1-6.2315,1.8218,13.1484,13.1484,0,0,1-4.632-.9115,14.0041,14.0041,0,0,1-5.5149-4.77,25.1527,25.1527,0,0,1-3.3094-5.2541,122.0908,122.0908,0,0,1-4.3563-12.1674l3.2,1.2319q1.7658,4.1781,2.5383,5.6776a34.5386,34.5386,0,0,0,3.0908,5.4106q3.64,4.981,9.16,4.981a8.1584,8.1584,0,0,0,5.1312-2.1931,4.765,4.765,0,0,0,1.9869-3.7987,5.7859,5.7859,0,0,0-1.104-3.3157,3.59,3.59,0,0,0-2.9257-1.8192,3.168,3.168,0,0,0-.7177.108,4.8344,4.8344,0,0,1,.6941,2.58q0,4.4649-5.0393,4.4644a4.9282,4.9282,0,0,1-3.9329-1.6641,6.0956,6.0956,0,0,1-1.4392-4.134,5.5845,5.5845,0,0,1,2.1781-4.4829,7.619,7.619,0,0,1,4.9921-1.7994,11.5111,11.5111,0,0,1,2.6464.375q5.57,1.2331,7.7762,7.9812a11.3061,11.3061,0,0,1,.6073,3.59A8.7714,8.7714,0,0,1,131.619,318.3134Z"/><path class="cls-2" d="M138.3068,297.3254l-4.1378-4.1327h33.5478l4.3588,4.1327Zm24.7619,20.988a12.78,12.78,0,0,1-6.2315,1.8218,13.1484,13.1484,0,0,1-4.632-.9115,14.0035,14.0035,0,0,1-5.5149-4.77,25.1443,25.1443,0,0,1-3.3094-5.2541,122.0673,122.0673,0,0,1-4.3564-12.1674l3.2,1.2319q1.7659,4.1781,2.5383,5.6776a34.5462,34.5462,0,0,0,3.0909,5.4106q3.64,4.981,9.16,4.981a8.158,8.158,0,0,0,5.1312-2.1931,4.765,4.765,0,0,0,1.9869-3.7987,5.7865,5.7865,0,0,0-1.1039-3.3157,3.59,3.59,0,0,0-2.9258-1.8192,3.1688,3.1688,0,0,0-.7177.108,4.8344,4.8344,0,0,1,.6941,2.58q0,4.4649-5.0393,4.4644a4.9281,4.9281,0,0,1-3.9328-1.6641,6.0952,6.0952,0,0,1-1.4393-4.134,5.5846,5.5846,0,0,1,2.1782-4.4829,7.6189,7.6189,0,0,1,4.9921-1.7994,11.5111,11.5111,0,0,1,2.6463.375q5.57,1.2331,7.7762,7.9812a11.3061,11.3061,0,0,1,.6073,3.59A8.7713,8.7713,0,0,1,163.0687,318.3134Z"/><path class="cls-2" d="M174.0662,295.7434l-.0845-.91q-.257-2.6246-.2558-7.1243l2.403,1.864a11.211,11.211,0,0,0,.709,2.9282,4.6115,4.6115,0,0,0,.601.6917h1.8566l4.0955,4.1327h-5.6118v29.1679l-4.0533-4.22V302.027a7.1466,7.1466,0,0,0-.221-1.443,4.0311,4.0311,0,0,0-1.5709-2.3235,4.4329,4.4329,0,0,0-2.7283-.9351h-.9376l-4.0793-3.8148a39.7511,39.7511,0,0,1,3.9725-.3179Q172.3,293.1927,174.0662,295.7434Z"/><path class="cls-2" d="M206.012,297.3254v28.6115l-4.1328-4.6V308.8743a3.9276,3.9276,0,0,0-1.3-1.7124,3.073,3.073,0,0,0-1.9062-.8556,2.9008,2.9008,0,0,0-2.3222,1.55q-4.59,6.784-6.1371,6.9976a8.5811,8.5811,0,0,1-1.1052.0534,5.0012,5.0012,0,0,1-2.5432-.4831q-1.66-.4824-4.6444-6.12l3.2-3.06a7.461,7.461,0,0,0,.7178,2.845q.8829,1.5032,1.3784,1.5026.6072,0,2.0974-1.936l2.2068-2.9568q-.3316-3.1182-1.9311-4.355-.8289-.6985-3.9725-.8072-2.8146-.16-3.7528-1.5585-.1118-.16-.5513-.8071l-.662-.3763-3.8074-3.6025h31.01l4.1377,4.1327Zm-11.7352,4.9673.606-.4806a4.3322,4.3322,0,0,1,2.3135-1.0692q1.872,0,4.6829,3.374v-6.7915h-9.8613A6.1112,6.1112,0,0,1,194.2768,302.2927Z"/><path class="cls-2" d="M243.6924,299.34q-.1192-1.5051-.2384-3.0139-.21-2.85-.21-9.0938l3.1442,2.953a2.82,2.82,0,0,0-.3117,1.3412q0,1.5571,1.2208,1.8254a2.853,2.853,0,0,0,1.4975-.2384l4.2707,4.134h-5.8763v29.0076l-4.61-4.6109.3179-14.7453a8.9677,8.9677,0,0,0-1.356-4.1551,10.9759,10.9759,0,0,0-2.7954-3.5119,5.1225,5.1225,0,0,0-3.7651-1.1263,6.161,6.161,0,0,0-4.3178,2.1608h1.6007a6.7588,6.7588,0,0,1,4.165,1.26,5.0258,5.0258,0,0,1,1.96,3.62,7.2292,7.2292,0,0,1-1.2145,4.129,20.4489,20.4489,0,0,1-2.6475,3.7541q-.6632.7506-1.8764,2.0912l-4.1937-4.6171a34.0632,34.0632,0,0,0,3.6572-3.4361q2.4383-2.4141,2.4389-3.0065,0-.5364-.83-.5364a8.532,8.532,0,0,0-2.4352,1.1288,7.0178,7.0178,0,0,1-2.9866,1.1276,2.7772,2.7772,0,0,1-1.3287-.3229,4.6942,4.6942,0,0,1-2.434-4.0905,7.4261,7.4261,0,0,1,1.2145-3.7938,8.0309,8.0309,0,0,1,2.8152-2.9332,9.2247,9.2247,0,0,1,4.637-1.13Q240.6,293.5106,243.6924,299.34Z"/><path class="cls-2" d="M263.4994,297.0075a4.8215,4.8215,0,0,0-2.758.8593,3.467,3.467,0,0,0-1.5449,2.2552,8.72,8.72,0,0,0-.1105,1.5572,36.3376,36.3376,0,0,0,.6619,6.3892,71.9729,71.9729,0,0,1,1.2145,7.785q0,4.8318-5.0207,7.893a8.2278,8.2278,0,0,1-3.8074,1.3958,1.9569,1.9569,0,0,1-1.931-1.3909,1.2793,1.2793,0,0,1-.1106-.4818q0-.801,1.2692-1.176l1.71-.5352a14.3272,14.3272,0,0,0,2.0415-1.7125,7.9748,7.9748,0,0,0,.883-3.2623,24.3278,24.3278,0,0,0-.9935-4.9213,29.056,29.056,0,0,1-1.0481-5.9917,12.1337,12.1337,0,0,1,1.5449-5.8838q.9927-1.2294,1.8763-2.4613h-6.6772l-4.2483-4.1327H262.12l4.4146,4.1327Q263.9415,297.0089,263.4994,297.0075Z"/><path class="cls-2" d="M268.1947,295.7434l-.0844-.91q-.2571-2.6246-.2558-7.1243l2.4029,1.864a11.2107,11.2107,0,0,0,.7091,2.9282,4.6,4.6,0,0,0,.601.6917h1.8566l4.0955,4.1327h-5.6118v29.1679l-4.0533-4.22V302.027a7.1358,7.1358,0,0,0-.2211-1.443,4.0307,4.0307,0,0,0-1.5709-2.3235,4.4327,4.4327,0,0,0-2.7283-.9351h-.9375l-4.0794-3.8148a39.7525,39.7525,0,0,1,3.9726-.3179Q266.4289,293.1927,268.1947,295.7434Z"/><path class="cls-2" d="M300.1405,297.3254v28.6115l-4.1328-4.6V308.8743a3.928,3.928,0,0,0-1.3-1.7124,3.0733,3.0733,0,0,0-1.9063-.8556,2.9007,2.9007,0,0,0-2.3221,1.55q-4.59,6.784-6.1371,6.9976a8.5822,8.5822,0,0,1-1.1052.0534,5.0012,5.0012,0,0,1-2.5432-.4831q-1.66-.4824-4.6444-6.12l3.2-3.06a7.4573,7.4573,0,0,0,.7178,2.845q.8829,1.5032,1.3784,1.5026.6072,0,2.0974-1.936l2.2067-2.9568q-.3315-3.1182-1.931-4.355-.8289-.6985-3.9726-.8072-2.8146-.16-3.7527-1.5585-.1117-.16-.5514-.8071l-.6619-.3763-3.8074-3.6025h31.0094l4.1378,4.1327Zm-11.7352,4.9673.606-.4806a4.3324,4.3324,0,0,1,2.3136-1.0692q1.8718,0,4.6828,3.374v-6.7915h-9.8613A6.1109,6.1109,0,0,1,288.4053,302.2927Z"/><path class="cls-2" d="M163.0091,369.3341a9.7648,9.7648,0,0,1-4.7264,1.484,7.0245,7.0245,0,0,1-2.8562-.8631,3.53,3.53,0,0,1-2.3135-3.3069,4.3852,4.3852,0,0,1,1.2306-2.9953,6.4907,6.4907,0,0,1,2.9034-1.8938,5.3266,5.3266,0,0,1,1.7224-.24,7.2658,7.2658,0,0,1,4.9213,1.5025,4.0707,4.0707,0,0,0,.9848-2.5383A4.587,4.587,0,0,0,163.4,357.707a89.6882,89.6882,0,0,0-7.5229-7.5192q-2.606-2.2968-2.6054-4.3576a3.5576,3.5576,0,0,1,1.9808-3.3032,3.3036,3.3036,0,0,1,1.6354-.4793,2.8884,2.8884,0,0,1,2.352,1.053,3.7328,3.7328,0,0,1,.8668,2.4414,6.1245,6.1245,0,0,1-.2893,1.3883,53.6717,53.6717,0,0,1,6.05,6.5581,12.1046,12.1046,0,0,1,2.9021,7.42Q168.77,366.0794,163.0091,369.3341Z"/><path class="cls-2" d="M177.6432,346.76a19.8492,19.8492,0,0,0,4.0372,1.4429q2.265.6744,4.53,1.3462a12.3429,12.3429,0,0,1,5.7111,3.9428,10.72,10.72,0,0,1,2.413,6.2972q.2459,3.5093-3.9863,6.8263-3.8373,2.98-7.43,2.6922l.986-5.2752a4.33,4.33,0,0,0,.0981-.8233,4.5351,4.5351,0,0,0-1.53-3.3877,7.78,7.78,0,0,0-1.1363-1.0643,8.5455,8.5455,0,0,0-1.58-.3874q-.5439-.0484-1.3821,1.1114a5.1207,5.1207,0,0,0-.8891,2.7544,1.5969,1.5969,0,0,0,.35,1.1114q3.3045-.2868,3.3058,2.7655a3.39,3.39,0,0,1-.6917,2.1943,2.5666,2.5666,0,0,1-2.1248,1.0009,4.3315,4.3315,0,0,1-3.6572-1.87,6.4426,6.4426,0,0,1-1.2355-3.9315,9.0348,9.0348,0,0,1,2.0539-5.7546,6.4687,6.4687,0,0,1,10.3928-.4086,7.7671,7.7671,0,0,1,2.1769,5.2951v.4793l1.0382-.7177a3.2293,3.2293,0,0,0,1.1872-2.3471q.0987-2.4885-2.7557-4.0694l-7.0374-2.6339a20.0464,20.0464,0,0,1-5.1671-2.8736q-3.0029-2.3451-3.0015-4.884a3.0619,3.0619,0,0,1,.0981-.7662q.79-3.0158,3.1057-3.0164a2.8688,2.8688,0,0,1,2.1447.8892,2.965,2.965,0,0,1,.863,2.14A2.27,2.27,0,0,1,177.6432,346.76Z"/><path class="cls-2" d="M209.5691,369.96a9.9782,9.9782,0,0,1-6.1718-2.3942,18.36,18.36,0,0,1-5.084-6.5121,43.1711,43.1711,0,0,1-2.7655-7.8532,31.4532,31.4532,0,0,1-.74-5.0765l2.6761,1.1511a29.2252,29.2252,0,0,0,1.8329,6.4016,34.9465,34.9465,0,0,0,3.6671,5.8266,7.7514,7.7514,0,0,0,6.5419,2.9729,6.5141,6.5141,0,0,0,4.5339-1.63,5.4718,5.4718,0,0,0,1.8093-4.2669,5.0306,5.0306,0,0,0-.5464-2.2539,7.5609,7.5609,0,0,1-6.404,3.2237,5.7913,5.7913,0,0,1-3.8224-1.4131,5.4045,5.4045,0,0,1-1.9856-3.4262l-.8929-5.9893a2.75,2.75,0,0,1-1.6641-1.0307,2.8842,2.8842,0,0,1-.6693-1.8441,2.5415,2.5415,0,0,1,1.0344-2.1322,3.4591,3.4591,0,0,1,2.4166-.6954q3.5988.24,3.5988,4.319v7.5813q0,.8643.89.8159a3.3438,3.3438,0,0,0,1.9286-.9637q0-.0483,1.4082-1.6379a11.1575,11.1575,0,0,0,2.2-4.0967q5.6851,3.975,5.6863,9.9121a12.0844,12.0844,0,0,1-2.419,7.5652A8.4018,8.4018,0,0,1,209.5691,369.96Z"/><path class="cls-2" d="M230.364,368.99a9.14,9.14,0,0,1-7.1479-2.1583,6.6172,6.6172,0,0,1-2.6128-5.0852,4.2759,4.2759,0,0,1,.1974-1.2952,7.5326,7.5326,0,0,1,4.19-4.6047,6.0223,6.0223,0,0,1-3.5926-5.7558,7.0532,7.0532,0,0,1,2.5134-5.4678,10.3881,10.3881,0,0,1,7.2448-2.7344,8.068,8.068,0,0,1,5.47,1.9186,5.6056,5.6056,0,0,1,1.3548,7.8917,8.5137,8.5137,0,0,1-2.4414,2.5656q4.1893,1.9671,4.3376,7.0511a6.1939,6.1939,0,0,1-3.056,5.5633A13.157,13.157,0,0,1,230.364,368.99Zm2.5606-9.9618a6.3273,6.3273,0,0,0-3.2573-1.5213,29.3058,29.3058,0,0,0-2.5159,1.854,3.6374,3.6374,0,0,0-1.3821,2.6141,2.3722,2.3722,0,0,0,.4445,1.4256,4.3008,4.3008,0,0,0,3.9962,1.8541q3.8484,0,4.935-3.09A4.6778,4.6778,0,0,0,232.9246,359.0283Zm-2.614-13.9605a4.9861,4.9861,0,0,0-2.7494.822,2.6628,2.6628,0,0,0-1.474,2.275,3.8893,3.8893,0,0,0,1.5721,2.9506,7.0739,7.0739,0,0,0,3.1431,1.5,22.8266,22.8266,0,0,0,2.5047-1.5485,3.3493,3.3493,0,0,0,1.5225-2.3707,3.089,3.089,0,0,0-1.4244-2.6128A5.2267,5.2267,0,0,0,230.3106,345.0678Z"/><path class="cls-3" d="M188.9221,81.5761s13.5643,28.8235-11.02,68.2438-25.433,80.959,24.16,123.7707c.8481-19.0744,8.9013-49.1692,24.5848-77.5686S229.614,115.4861,188.9221,81.5761Z"/><path class="cls-4" d="M191.4864,162.2635h0c-7.2242,12.2822-10.78,23.6274-10.78,34.4784a48.9012,48.9012,0,0,0,.4266,6.4612c1.2734,9.5782,5.5788,19.1867,12.8062,28.7115A189.1183,189.1183,0,0,1,210.31,187.9725c2.3948-4.5984,3.5994-10.4477,3.5994-17.0023,0-11.4685-3.7019-25.0931-11.15-37.95A90.69,90.69,0,0,1,191.4864,162.2635Z"/></svg>